PathFileType	4	(X/Y/Z)	../Python\walking\Walking09\task.trc
DataRate	CameraRate	NumFrames	NumMarkers	Units	OrigDataRate	OrigDataStartFrame	OrigNumFrames
200.000000	200.000000	6	30	mm	200.000000	0	668
Frame#	Time	CLAV			STRN			RASI			LASI			RTH1			RTH2			RTH3			RTB1			RTB2			RTB3			RHEE			RD5M			RTOE			LTH1			LTH3			LTB1			LTB3			LTOE			LD5M			LPSI			LTB2			LTH2			RPSI			PE02			T10			PE03			PE01			C7			LHEE			RBAK			
		X1	Y1	Z1	X2	Y2	Z2	X3	Y3	Z3	X4	Y4	Z4	X5	Y5	Z5	X6	Y6	Z6	X7	Y7	Z7	X8	Y8	Z8	X9	Y9	Z9	X10	Y10	Z10	X11	Y11	Z11	X12	Y12	Z12	X13	Y13	Z13	X14	Y14	Z14	X15	Y15	Z15	X16	Y16	Z16	X17	Y17	Z17	X18	Y18	Z18	X19	Y19	Z19	X20	Y20	Z20	X21	Y21	Z21	X22	Y22	Z22	X23	Y23	Z23	X24	Y24	Z24	X25	Y25	Z25	X26	Y26	Z26	X27	Y27	Z27	X28	Y28	Z28	X29	Y29	Z29	X30	Y30	Z30	

1	0	-1342.50439453125	1416.936767578125	137.4396362304688	-1284.228759765625	1226.041625976563	159.7323303222657	-1312.77099609375	1000.649963378907	303.7347106933595	-1294.7392578125	1026.12744140625	30.00950813293458	-1359.394409179688	730.4997558593752	334.6360473632814	-1416.719848632813	709.016296386719	323.8065185546876	-1397.30419921875	663.164978027344	316.3724975585939	-1495.623779296875	366.8367004394532	287.7985839843751	-1558.194458007813	372.7054138183595	290.9769592285157	-1562.222534179688	323.3604431152345	280.3605957031251	-1823.502075195313	241.5455322265626	208.8795318603517	-1774.737670898438	88.92765808105472	275.617645263672	-1734.688598632813	61.48994445800784	238.0068359375001	-1315.614379882813	715.2247314453127	-6.061324119567875	-1278.57958984375	648.4739990234377	12.07292842864991	-1283.310302734375	354.8464660644532	45.99917602539064	-1258.69580078125	281.1617126464845	58.14216995239261	-1111.991333007813	30.43246269226076	133.1808319091797	-1156.41259765625	14.44343948364259	85.30683135986331	-1472.598022460938	1059.765014648438	115.9786758422852	-1310.157592773438	316.4159240722657	59.92673110961917	-1335.444580078125	671.1917114257815	7.331144809722904	-1470.074096679688	1051.099609375	215.1408081054689	-1475.3408203125	1040.371459960938	189.3215026855469	-1507.093505859375	1248.298095703125	152.7285156250001	-1477.866577148438	1045.033447265625	140.069320678711	-1464.117553710938	1102.877685546875	169.4671783447266	-1453.916259765625	1506.326416015625	121.9130935668946	-1323.20263671875	33.57280349731447	144.1914672851563	-1474.911499023438	1432.706909179688	302.4668884277345	
2	0.005	-1336.192138671875	1417.810791015625	137.1918182373047	-1278.068725585938	1226.809326171875	159.5169067382813	-1307.033569335938	1001.4853515625	303.3264770507814	-1288.816040039063	1026.883422851563	29.51762580871583	-1351.161010742188	731.1903076171877	334.4080505371095	-1408.014892578125	708.8962402343752	322.8658752441407	-1387.877197265625	663.3704223632815	315.7689819335939	-1482.290405273438	367.485809326172	287.8094177246095	-1544.836547851563	373.6705017089845	291.2104492187501	-1549.155273437501	324.3963623046876	280.3946533203126	-1811.349731445313	243.5994720458986	207.9870147705079	-1762.453491210938	92.23740386962893	277.4677734375001	-1721.959106445313	63.93695068359378	240.8522338867189	-1312.5869140625	715.530700683594	-6.366208076477054	-1276.15576171875	648.392517089844	11.75073337554932	-1282.093627929688	354.8153686523439	45.52546691894533	-1257.811401367188	281.0208740234376	57.69371414184573	-1111.9462890625	30.3528175354004	133.1204071044922	-1156.402587890625	14.33745765686036	85.17905426025393	-1466.694213867188	1060.50146484375	115.3286590576172	-1309.109130859375	316.5340270996095	59.55407714843753	-1332.826782226563	671.6336059570315	7.084319114685062	-1464.252075195313	1051.767822265625	214.5424652099611	-1469.535278320313	1041.035888671875	188.7814025878907	-1500.9970703125	1249.2978515625	152.0067749023438	-1472.02978515625	1045.7529296875	139.4867248535157	-1458.211181640625	1103.580688476563	168.9691619873047	-1447.59130859375	1507.309936523438	121.4657135009766	-1323.221069335938	33.62535095214845	144.1438598632813	-1469.076049804688	1433.691528320313	301.9539184570314	
3	0.01	-1329.91796875	1418.686157226563	136.949691772461	-1271.96044921875	1227.57861328125	159.2926483154297	-1301.338623046875	1002.386657714844	302.9269409179689	-1282.940551757813	1027.59375	29.02910232543947	-1343.0419921875	732.009704589844	334.2280883789064	-1399.396240234375	708.920349121094	321.9336242675782	-1378.546264648438	663.738220214844	315.171844482422	-1468.906616210938	368.2742004394532	287.8257446289064	-1531.436279296875	374.7161865234376	291.3757324218751	-1535.978515625	325.4907836914064	280.4264221191407	-1798.906860351563	245.2756958007814	206.9789276123048	-1749.678344726563	95.30608367919925	279.3011779785157	-1708.745971679688	66.23402404785159	243.669647216797	-1309.595703125	715.857604980469	-6.638784885406498	-1273.691040039063	648.3739013671877	11.43142700195313	-1280.924682617188	354.7947082519532	45.07908248901369	-1256.948120117188	280.9012756347657	57.27592468261722	-1111.905639648438	30.27953529357912	133.063217163086	-1156.394409179688	14.24465274810792	85.06132507324222	-1460.827880859375	1061.289184570313	114.6370697021485	-1308.10009765625	316.6460571289064	59.18302536010745	-1330.194946289063	672.0859985351565	6.85128211975098	-1458.47265625	1052.485961914063	213.9132843017579	-1463.759399414063	1041.757690429688	188.2237854003907	-1494.950805664063	1250.311279296875	151.2727966308594	-1466.23193359375	1046.511352539063	138.8741607666016	-1452.339477539063	1104.323364257813	168.4264526367188	-1441.293090820313	1508.301879882813	121.0291824340821	-1323.239135742188	33.68463516235353	144.1002044677735	-1463.242309570313	1434.662109375	301.437469482422	
4	0.015	-1323.68115234375	1419.562133789063	136.7116088867188	-1265.90087890625	1228.351196289063	159.0571441650391	-1295.67919921875	1003.351257324219	302.5306091308595	-1277.112182617188	1028.261596679688	28.54119110107423	-1335.0302734375	732.9517822265627	334.0932006835939	-1390.857543945313	709.0814208984377	321.0135803222657	-1369.304931640625	664.2571411132815	314.5848083496095	-1455.488037109375	369.198699951172	287.8508300781251	-1518.010009765625	375.8371887207032	291.4728393554689	-1522.706298828125	326.6360473632814	280.4609680175782	-1786.198608398438	246.5682678222657	205.9031677246095	-1736.427124023438	98.10569763183599	281.091033935547	-1695.063842773438	68.36283874511722	246.4121856689454	-1306.598388671875	716.214538574219	-6.886564254760746	-1271.15185546875	648.423767089844	11.11255931854248	-1279.7958984375	354.7879638671876	44.66437911987306	-1256.100341796875	280.8058166503907	56.89392852783206	-1111.86865234375	30.21269607543947	133.0091857910157	-1156.388671875	14.16523170471192	84.95508575439456	-1454.994750976563	1062.128784179688	113.9116210937501	-1307.124755859375	316.7561645507814	58.81609725952151	-1327.51025390625	672.5585937500002	6.619585990905765	-1452.729736328125	1053.25537109375	213.2592926025392	-1458.008544921875	1042.539184570313	187.6521148681641	-1488.951416015625	1251.3359375	150.5279541015626	-1460.46875	1047.310546875	138.2362518310547	-1446.499389648438	1105.106323242188	167.8434753417969	-1435.021240234375	1509.300048828125	120.6029815673829	-1323.257202148438	33.74990463256837	144.0627441406251	-1457.41015625	1435.61865234375	300.9175415039064	
5	0.02	-1317.480590820313	1420.438232421875	136.4759216308594	-1259.886840820313	1229.128540039063	158.8080596923829	-1290.048583984375	1004.375915527344	302.1320800781251	-1271.330200195313	1028.890502929688	28.05100250244142	-1327.117309570313	734.0091552734377	334.0001831054689	-1382.391845703125	709.3709106445315	320.1098937988282	-1360.145874023438	664.914733886719	314.0117797851564	-1442.049560546875	370.2540588378907	287.8868103027345	-1504.5732421875	377.0257263183595	291.5029602050782	-1509.352416992188	327.8231201171876	280.5021972656251	-1773.250488281251	247.4729766845704	204.8052062988282	-1722.713623046876	100.612777709961	282.814910888672	-1680.922607421876	70.30899047851565	249.0396118164064	-1303.561401367188	716.6065063476565	-7.115453720092777	-1268.51806640625	648.540466308594	10.79404640197754	-1278.700927734375	354.7973937988282	44.28412246704103	-1255.265380859375	280.735809326172	56.55094528198245	-1111.834838867188	30.15211296081544	132.9581909179688	-1156.385620117188	14.09878444671632	84.86128997802737	-1449.191162109375	1063.019165039063	113.1608505249024	-1306.178466796875	316.8680725097657	58.45625686645511	-1324.74658203125	673.0577392578127	6.380193233489994	-1447.01806640625	1054.076171875	212.5867614746095	-1452.279174804688	1043.380859375	187.0704650878907	-1482.99560546875	1252.369506835938	149.7736816406251	-1454.735961914063	1048.151000976563	137.5784606933594	-1440.6884765625	1105.929443359375	167.2251892089844	-1428.775634765625	1510.302124023438	120.1865539550782	-1323.27587890625	33.82058334350587	144.0332794189454	-1451.57958984375	1436.56103515625	300.3941650390626	
6	0.025	-1311.3154296875	1421.313598632813	136.2410278320313	-1253.9150390625	1229.91162109375	158.5432586669922	-1284.441040039063	1005.456604003907	301.7260742187501	-1265.593994140625	1029.483642578125	27.55562973022462	-1319.292846679688	735.1737060546877	333.9455871582032	-1373.991088867188	709.7793579101565	319.2268371582032	-1351.060791015625	665.6982421875002	313.456512451172	-1428.60498046875	371.4330139160157	287.9346923828126	-1491.140014648438	378.2720031738282	291.4682922363282	-1495.929565429688	329.0418701171876	280.5528564453126	-1760.087158203126	247.9871368408204	203.7263031005861	-1708.552001953126	102.8083877563477	284.4549865722657	-1666.330200195313	72.06133270263675	251.5191345214845	-1300.4609375	717.0339965820315	-7.329717636108402	-1265.782470703125	648.7165527343752	10.47803592681885	-1277.635375976563	354.8240966796876	43.93954467773439	-1254.442260742188	280.6912536621095	56.24818801879886	-1111.803833007813	30.09739875793458	132.9102172851563	-1156.385131835938	14.04443836212159	84.78034973144534	-1443.413452148438	1063.956787109375	112.3938598632813	-1305.258422851563	316.9849853515626	58.10688400268558	-1321.889404296875	673.5865478515627	6.127433300018314	-1441.332397460938	1054.947631835938	211.902069091797	-1446.567749023438	1044.281860351563	186.4833984375001	-1477.080322265625	1253.409301757813	149.0115509033204	-1449.02978515625	1049.031616210938	136.9068603515626	-1434.904418945313	1106.791381835938	166.5769042968751	-1422.555541992188	1511.306030273438	119.7792892456055	-1323.294921875	33.8962745666504	144.0130920410157	-1445.750610351563	1437.489135742188	299.8673095703126	
